<?xml version="1.0" encoding="utf-8"?>
<!-- Generator: Adobe Illustrator 25.4.1, SVG Export Plug-In . SVG Version: 6.00 Build 0)  -->
<svg version="1.1" id="Layer_1" xmlns="http://www.w3.org/2000/svg" xmlns:xlink="http://www.w3.org/1999/xlink" x="0px" y="0px"
	 viewBox="0 0 1260 1260" style="enable-background:new 0 0 1260 1260;" xml:space="preserve">
<style type="text/css">
	.st0{fill:#007CFF;}
	.st1{fill:#FFFFFF;}
	.st2{fill:#1A2E35;}
	.st3{opacity:0.3;fill:#FFFFFF;enable-background:new    ;}
	.st4{opacity:0.1;fill:#FFFFFF;enable-background:new    ;}
	.st5{fill:#FFB570;}
	.st6{opacity:0.2;enable-background:new    ;}
	.st7{fill:#F5F5F5;}
	.st8{fill:url(#SVGID_1_);}
	.st9{fill:url(#SVGID_00000043418533374949491770000007821226182787800233_);}
	.st10{fill:url(#SVGID_00000031168132781306172130000005260640269965382541_);}
	.st11{fill:url(#SVGID_00000051347284542514058140000007700031387074029966_);}
	.st12{fill:url(#SVGID_00000133530719206669162210000000528753201550593725_);}
	.st13{opacity:0.6;}
	.st14{opacity:0.7;fill:#FFFFFF;enable-background:new    ;}
	.st15{opacity:0.7;}
	.st16{opacity:0.15;fill:#007CFF;enable-background:new    ;}
	.st17{opacity:0.5;fill:#007CFF;enable-background:new    ;}
</style>
<g id="Layer_2_00000037694854615873501960000017059166328364447388_">
	<g id="Layer_1-2">
		<path class="st0" d="M899,997c-61.7,0-111.7-50-111.7-111.7s50-111.7,111.7-111.7s111.7,50,111.7,111.7
			C1010.6,947,960.6,997,899,997z M899,776.4c-60.2,0-108.9,48.8-108.9,108.9c0,60.2,48.8,108.9,108.9,108.9
			c60.1,0,108.9-48.7,108.9-108.8C1007.8,825.2,959.1,776.5,899,776.4z"/>
		<rect x="881.2" y="822.8" class="st0" width="35.5" height="125.1"/>
		<rect x="836.5" y="867.6" class="st0" width="125.1" height="35.5"/>
		<path class="st0" d="M151.5,51.2l-2.4-2.5c16.1-15.2,36.6-25.1,58.5-28.2l0.5,3.4C186.9,26.9,167.1,36.5,151.5,51.2z"/>
		<path class="st0" d="M125.8,89.3l-3.2-1.3c3.5-8.8,8.1-17.2,13.8-24.8l2.8,2.1C133.6,72.7,129.1,80.7,125.8,89.3z"/>
		<circle class="st0" cx="222.9" cy="127.2" r="95.6"/>
		<path class="st1" d="M279.9,84.1c-15.3-15.9-40.5-16.4-56.4-1.1c-0.2,0.2-0.4,0.4-0.6,0.5C207.3,68,182,68,166.4,83.7
			c-0.1,0.1-0.3,0.3-0.4,0.4c-15.2,15.8-14.1,41.4,1.5,56.8l45.2,45.2c5.7,5.7,15,5.7,20.7,0c0,0,0,0,0,0l45.2-45.2
			C294,125.4,295.2,99.9,279.9,84.1z"/>
		<path class="st0" d="M222.9,168.9h-0.1c-1.4,0-2.7-1-3.2-2.3l-20.2-59l-8.4,24.7c-0.5,1.4-1.8,2.4-3.3,2.4H154
			c-1.9,0-3.5-1.6-3.5-3.5c0-1.9,1.6-3.5,3.5-3.5c0,0,0,0,0,0h31.3l10.9-31.9c0.6-1.8,2.6-2.8,4.4-2.2c1,0.4,1.8,1.1,2.2,2.2
			l20.5,60l19.9-46.9c0.5-1.2,1.7-2,3-2.1c1.3-0.1,2.6,0.6,3.2,1.8l10.7,19.2h31.7c1.9,0,3.5,1.6,3.5,3.5c0,1.9-1.6,3.5-3.5,3.5
			h-33.8c-1.3,0-2.4-0.7-3-1.8l-8.3-14.8l-20.7,48.8C225.6,168.1,224.3,168.9,222.9,168.9z"/>
		<path class="st2" d="M753.3,1117.5H389.7c-23.6,0.2-42.9-18.7-43.2-42.3c0-1.3,0-2.6,0.1-3.9l58.8-870.4
			c1.7-25.4,23.9-46.2,49.3-46.2h363.5c23.6-0.2,42.9,18.7,43.2,42.3c0,1.3,0,2.6-0.1,3.9l-58.8,870.4
			C800.8,1096.7,778.6,1117.5,753.3,1117.5z"/>
		<path class="st2" d="M833.7,509.2h-9.2c-6.6,0.1-12-5.2-12.1-11.8c0-0.4,0-0.7,0-1.1L823.7,330c0.6-7.2,6.6-12.8,13.8-12.9h9.2
			c6.6-0.1,12,5.2,12,11.8c0,0.4,0,0.7,0,1.1l-11.2,166.4C846.8,503.6,840.9,509.1,833.7,509.2z"/>
		<path class="st0" d="M400.1,398.2H391c-5.4,0.1-9.8-4.3-9.9-9.7c0-0.3,0-0.6,0-0.9l4.1-60.1c0.5-5.9,5.3-10.4,11.3-10.5h9.2
			c5.4-0.1,9.8,4.3,9.9,9.7c0,0.3,0,0.6,0,0.9l-4.1,60.1C411,393.6,406.1,398.1,400.1,398.2z"/>
		<path class="st0" d="M392.9,505.5h-9.2c-5.4,0.1-9.8-4.3-9.9-9.7c0-0.3,0-0.6,0-0.9l4.1-60.1c0.5-5.9,5.3-10.4,11.3-10.5h9.2
			c5.4-0.1,9.8,4.3,9.9,9.7c0,0.3,0,0.6,0,0.9l-4.1,60.1C403.6,500.9,398.8,505.4,392.9,505.5z"/>
		<path class="st0" d="M745.6,1117.5H382c-23.6,0.2-42.9-18.7-43.2-42.3c0-1.3,0-2.6,0.1-3.9l58.8-870.4
			c1.7-25.4,23.9-46.2,49.3-46.2h363.5c23.6-0.2,42.9,18.7,43.2,42.3c0,1.3,0,2.6-0.1,3.9l-58.8,870.4
			C793.2,1096.7,771,1117.5,745.6,1117.5z"/>
		<polygon class="st3" points="342.8,1061.8 400.2,212.1 849.7,212.1 792.3,1061.8 		"/>
		<polygon class="st4" points="520.3,1061.8 680.7,212.1 781.4,212.1 621,1061.8 		"/>
		<polygon class="st4" points="444.2,1061.8 604.6,212.1 655.6,212.1 495.2,1061.8 		"/>
		<path class="st1" d="M583.6,176.1h87.7c2.9,0,5.3,2.3,5.3,5.2c0,0.2,0,0.3,0,0.5l0,0c-0.3,3.2-2.9,5.6-6.1,5.7h-87.7
			c-2.9,0-5.3-2.3-5.3-5.2c0-0.2,0-0.3,0-0.5l0,0C577.7,178.6,580.4,176.1,583.6,176.1z"/>
		<polygon class="st5" points="565.3,1201.3 534.6,1204.2 523.5,1133.3 554.2,1130.4 		"/>
		<path class="st2" d="M531.1,1189.2l32.2-10c1.2-0.4,2.4,0.2,2.9,1.4l10.5,25.6c1,2.7-0.4,5.7-3.1,6.7c-0.1,0-0.1,0-0.2,0.1
			c-11.6,3.4-22.7,4.3-36.7,10.3c-16.4,6.9-23.3,16.2-40.9,16.2c-12.7,0-15.5-11.6-10.2-13.2c24.3-7.4,21.2-13.4,38.9-32.5
			C526.2,1191.7,528.5,1190.1,531.1,1189.2z"/>
		<polygon class="st6" points="523.5,1133.3 529.2,1169.9 560,1166.9 554.2,1130.4 		"/>
		<path class="st1" d="M545.7,237.7c-40.3-4.7-80.4-1.5-120.6,6.3c-13.7,2.7-24.1,13.9-25.8,27.7c-4.4,38.5-9.3,124.9,10.1,253.7
			l164.7-13.9c0.3-23.4-16.3-129.9-2.6-240.4c2.3-16.2-9-31.1-25.2-33.4C546.1,237.7,545.9,237.7,545.7,237.7z"/>
		<path class="st2" d="M449.9,270.7l5.9,11.8c0.6,1.2,1.8,2,3.1,2l6.4,0.3c1.1,0.1,2.3-0.3,3.2-1l11-8.2l-13.6-9.9L449.9,270.7z"/>
		<path class="st2" d="M465.4,281.5c-4.7-1.8-7.4-0.6-7.4-0.6c-5.2,18.3-10.9,70.8-11.4,94c15.7,45.8,20.9,50.5,20.9,50.5l8-55.1
			C475.4,370.2,466.4,313.7,465.4,281.5z"/>
		<path class="st5" d="M510.9,158.2c-3.8,22.7-7,64.2,9.3,78.9c-11.9,12.5-27.6,27.1-54.4,28.7c-26.8,1.6-22.7-16.9-15.9-26.8
			c25-6.7,23.8-25.3,18.9-42.7L510.9,158.2z"/>
		<path class="st7" d="M527.1,235.1c-1.9-0.8-3.9-1.5-5.9-1.9c-1-0.3-2.1,0.2-2.6,1.1c-2.6,4.4-10.5,24-52.7,31.5
			c6.9,4.1,16.2,16.9,20.2,23c12.7-6.6,45.7-26.2,42.5-51.7C528.4,236.2,527.9,235.5,527.1,235.1z"/>
		<path class="st7" d="M450.1,240c0.3-1.3-0.6-2.6-1.9-2.9c-0.3-0.1-0.6-0.1-1,0c-1.5,0.3-2.9,0.7-4.3,1.2c-0.3,0.1-0.6,0.3-0.9,0.5
			c-3.2,3-20.9,28.5-4.4,49.1c3.7-5.6,15.5-18.3,28.1-22.1C453.9,260.4,448,250.5,450.1,240z"/>
		<path class="st6" d="M493.7,173.7l-24.8,22.4c1.2,4.1,2.1,8.2,2.5,12.4c9.6-1.6,22.5-12.5,23.2-22.7
			C495,180.9,494.6,176,493.7,173.7z"/>
		
			<linearGradient id="SVGID_1_" gradientUnits="userSpaceOnUse" x1="439.0545" y1="1142.3436" x2="477.1381" y2="1142.3436" gradientTransform="matrix(1 0 0 -1 0 1258.5)">
			<stop  offset="0" style="stop-color:#09005D"/>
			<stop  offset="1" style="stop-color:#1A0F91"/>
		</linearGradient>
		<path class="st8" d="M460.5,89.6c-21.4,8.4-22.9,26-20.7,45.3c2.2,19.3,22.9,6.5,27.6-5.5C472,117.4,490.2,78,460.5,89.6z"/>
		<path class="st5" d="M528.9,128c-6,30.3-7.9,48.4-25.3,62.3c-26.2,21-61.6,2.9-64.7-28.4c-2.8-28.2,7.4-73.1,38.6-81.9
			C508.3,71.3,534.9,97.7,528.9,128z"/>
		
			<linearGradient id="SVGID_00000023983318848961287200000010897522720389191091_" gradientUnits="userSpaceOnUse" x1="431.3292" y1="1152.3892" x2="550.5671" y2="1152.3892" gradientTransform="matrix(1 0 0 -1 0 1258.5)">
			<stop  offset="0" style="stop-color:#09005D"/>
			<stop  offset="1" style="stop-color:#1A0F91"/>
		</linearGradient>
		<path style="fill:url(#SVGID_00000023983318848961287200000010897522720389191091_);" d="M527.7,153.1
			c-25.5,1.4-20.1-13.2-15.5-21.5c4.6-8.3-4.8-22.1,1.4-29.2c-11,4.4-22.6,0.8-37.3-9.5c-11.4-8-25.7,23.9-39.7,7.9
			c-13.2-15.2-0.9-37.8,30.7-41.5c31.6-3.7,37.4,18.7,58.2,16.7c20.8-2,13.5,15.2,9.5,18.6C552.2,95.9,561.7,112.5,527.7,153.1z"/>
		
			<linearGradient id="SVGID_00000016763581525833904570000008693329926331193741_" gradientUnits="userSpaceOnUse" x1="530.9593" y1="1172.5009" x2="548.0908" y2="1172.5009" gradientTransform="matrix(1 0 0 -1 0 1258.5)">
			<stop  offset="0" style="stop-color:#09005D"/>
			<stop  offset="1" style="stop-color:#1A0F91"/>
		</linearGradient>
		<path style="fill:url(#SVGID_00000016763581525833904570000008693329926331193741_);" d="M531,96.8c8.1-4.5,13.2-13,13.2-22.3
			C551,86.7,550.2,100.4,531,96.8z"/>
		<path class="st5" d="M535.1,162.4c-4.8,6.1-11.8,10.2-19.5,11.2c-10.2,1.3-13.5-8.1-9.3-17c3.8-7.9,13.8-18.2,23.2-15.4
			C539.1,144,541,154.8,535.1,162.4z"/>
		
			<linearGradient id="SVGID_00000163044083359886997380000001248998572309895818_" gradientUnits="userSpaceOnUse" x1="409.4813" y1="419.3843" x2="567.7158" y2="419.3843" gradientTransform="matrix(1 0 0 -1 0 1258.5)">
			<stop  offset="0" style="stop-color:#09005D"/>
			<stop  offset="1" style="stop-color:#1A0F91"/>
		</linearGradient>
		<path style="fill:url(#SVGID_00000163044083359886997380000001248998572309895818_);" d="M525,822c1.2-91,12.8-307.5,12.8-307.5
			l-128.4,10.8c0,0,25.5,223.2,40.9,316c16,96.5,65.2,322.4,65.2,322.4l52.1-4.4C567.7,1159.3,548.8,892.4,525,822z"/>
		<polygon class="st0" points="512.4,1165.2 574.4,1159.9 572,1139.9 507.4,1144.2 		"/>
		
			<linearGradient id="SVGID_00000163783516690730992650000014781269614137872290_" gradientUnits="userSpaceOnUse" x1="449.6982" y1="471.8855" x2="733.8915" y2="471.8855" gradientTransform="matrix(1 0 0 -1 0 1258.5)">
			<stop  offset="0" style="stop-color:#09005D"/>
			<stop  offset="1" style="stop-color:#1A0F91"/>
		</linearGradient>
		<path style="fill:url(#SVGID_00000163783516690730992650000014781269614137872290_);" d="M632,807.4
			c-26.7-136.9-32.6-244-57.9-295.9l-124.4,13.9c0,0,74.1,204,110.3,291.2c37.6,90.6,111.8,245.3,111.8,245.3h62.1
			C733.9,1061.8,675.9,869.8,632,807.4z"/>
		<path class="st5" d="M237.7,288.9l-13.4-8.5c-4.5-2.9-10.4-2.2-14.1,1.6l-9.1,9.7c-4,4.2-3.8,10.8,0.4,14.8
			c0.2,0.1,0.3,0.3,0.5,0.4l6.5,5.5c5.6,4.8,12.2,8.4,19.3,10.6l19.7,5.8l12.9-13.9C264.4,300.3,237.7,288.9,237.7,288.9z"/>
		<path class="st0" d="M436.7,282.4c-4.9,11.9-9.7,23-14.8,34.3c-5.2,11.3-10.5,22.5-16.3,33.6s-12,22.2-19,33.2
			c-3.6,5.5-7.4,11-11.7,16.5c-4.7,6.1-10.1,11.7-16,16.6c-3.9,3.2-8.2,5.9-12.9,7.9c-1.4,0.6-2.9,1.2-4.4,1.6l-2.4,0.7
			c-5.4,1.3-11,1.2-16.4-0.3c-5.2-1.4-10.1-3.7-14.6-6.6c-3.3-2.2-6.5-4.5-9.6-7.1c-11.1-9.5-19.5-19.1-27.7-28.8
			c-8.2-9.8-15.8-19.5-23.1-29.5c-7.3-10-14.4-19.8-21.7-30.3l38.5-24.8c12.2,19.6,25.6,38.4,40.3,56.3c7.2,8.5,14.9,16.9,22.2,23
			c1.6,1.3,3.2,2.5,4.9,3.6c1.4,0.9,2.6,1.2,1.7,0.9c-1.2-0.3-2.5-0.4-3.8-0.2c-0.5,0.1-1,0.1-1.5,0.3c-0.1,0-0.2,0-0.3,0
			c-0.2,0.1-0.2,0-0.2,0c0.8-0.5,1.6-1.1,2.3-1.7c3.2-2.9,6-6.1,8.6-9.6c3-4,5.9-8.4,8.8-13c5.8-9.6,11-19.6,15.8-29.8
			c4.9-10.4,9.6-21,13.8-31.7c4.2-10.7,8.5-21.9,12-32.5L436.7,282.4z"/>
		<g class="st13">
			<path class="st1" d="M436.7,282.4c-4.9,11.9-9.7,23-14.8,34.3c-5.2,11.3-10.5,22.5-16.3,33.6s-12,22.2-19,33.2
				c-3.6,5.5-7.4,11-11.7,16.5c-4.7,6.1-10.1,11.7-16,16.6c-3.9,3.2-8.2,5.9-12.9,7.9c-1.4,0.6-2.9,1.2-4.4,1.6l-2.4,0.7
				c-5.4,1.3-11,1.2-16.4-0.3c-5.2-1.4-10.1-3.7-14.6-6.6c-3.3-2.2-6.5-4.5-9.6-7.1c-11.1-9.5-19.5-19.1-27.7-28.8
				c-8.2-9.8-15.8-19.5-23.1-29.5c-7.3-10-14.4-19.8-21.7-30.3l38.5-24.8c12.2,19.6,25.6,38.4,40.3,56.3c7.2,8.5,14.9,16.9,22.2,23
				c1.6,1.3,3.2,2.5,4.9,3.6c1.4,0.9,2.6,1.2,1.7,0.9c-1.2-0.3-2.5-0.4-3.8-0.2c-0.5,0.1-1,0.1-1.5,0.3c-0.1,0-0.2,0-0.3,0
				c-0.2,0.1-0.2,0-0.2,0c0.8-0.5,1.6-1.1,2.3-1.7c3.2-2.9,6-6.1,8.6-9.6c3-4,5.9-8.4,8.8-13c5.8-9.6,11-19.6,15.8-29.8
				c4.9-10.4,9.6-21,13.8-31.7c4.2-10.7,8.5-21.9,12-32.5L436.7,282.4z"/>
		</g>
		<path class="st0" d="M528,228.9c-13.1,24.2-59.6,117.3-65.2,174.6c-20.6-52.1-16.1-167.8-16.1-167.8c-10.1,0.3-28.7,4.8-42.7,10.3
			c-9.1,3.6-15.3,12.1-16.1,21.9c-2.1,28.3-5.1,95.5,5.7,179.2c14.4,112.5,28,287.4,28,287.4s115.1-4.8,203.9-23.5
			c-10.9-86-47.9-230.1-48.3-268.7c-0.4-49.6,0.7-146.8,2.3-187.3c0.5-11.8-7.7-22.3-19.3-24.6C549.5,228.5,538.7,228,528,228.9z"/>
		<path class="st14" d="M528,228.9c-13.1,24.2-59.6,117.3-65.2,174.6c-20.6-52.1-16.1-167.8-16.1-167.8
			c-10.1,0.3-28.7,4.8-42.7,10.3c-9.1,3.6-15.3,12.1-16.1,21.9c-2.1,28.3-5.1,95.5,5.7,179.2c14.4,112.5,28,287.4,28,287.4
			s115.1-4.8,203.9-23.5c-10.9-86-47.9-230.1-48.3-268.7c-0.4-49.6,0.7-146.8,2.3-187.4c0.6-11.4-7-21.7-18.1-24.3
			C550.3,228.6,539.1,228,528,228.9z"/>
		<path class="st1" d="M500.9,716c-20-110.3-35.8-272.1-37.2-291.6l1.8-0.1c1.3,19.5,17.2,181.2,37.1,291.4L500.9,716z"/>
		<path class="st1" d="M490.8,519.8H384.7c-4.4-0.2-8.2-3.3-9.2-7.6l-35.5-165c-0.9-3.2,0.9-6.4,4.1-7.3c0.6-0.2,1.2-0.2,1.9-0.2
			h106.2c4.4,0.2,8.2,3.3,9.2,7.6l35.5,165c0.9,3.2-0.9,6.4-4.1,7.3C492.1,519.8,491.5,519.8,490.8,519.8z"/>
		<path class="st0" d="M487.5,521.3H379.6c-4.5-0.2-8.3-3.3-9.4-7.7l-36.1-167.8c-0.9-3.2,0.9-6.6,4.2-7.5c0.6-0.2,1.2-0.3,1.9-0.2
			h107.9c4.5,0.2,8.3,3.3,9.4,7.7l36.1,167.8c0.9,3.2-0.9,6.6-4.2,7.5C488.8,521.3,488.2,521.4,487.5,521.3z"/>
		<path class="st5" d="M499.9,426.5l-26.9-1c-3.2-0.1-6.5,0.4-9.5,1.6l-13.9,5.5c-5.4,2.1-8.1,8.1-6,13.5c0.1,0.2,0.2,0.4,0.3,0.7
			l5.5,12c2.3,4.8,7.7,7.4,12.9,6.1l15.4-3.8c0,0,28.9-2.3,29.9-17.4L499.9,426.5z"/>
		<path class="st0" d="M574.1,243.9c6.7,10.3,12.7,20,18.8,30.2c6,10.2,11.9,20.4,17.4,31c5.5,10.6,10.8,21.5,15.6,33.2
			c2.5,6.1,4.6,12.4,6.4,18.8c2.2,7.8,3.3,15.8,3.1,23.9v0.9v0.5c0,0.1,0,0.3,0,0.7c-0.1,1.3-0.3,2.5-0.6,3.8
			c-0.2,1.2-0.6,2.2-0.9,3.3c-0.3,1.1-0.7,1.9-1.1,2.9c-1.3,3-3,5.8-5.1,8.4c-2.8,3.6-6.1,6.8-9.7,9.7c-5.5,4.3-11.3,8.2-17.4,11.5
			c-10.8,5.9-21.8,11.2-33.2,15.8c-10.9,4.7-21.9,8.9-32.9,12.9c-11,4-21.8,7.9-33.3,11.7l-13.3-43.9c10.3-2.9,21.1-6.4,31.5-9.9
			c10.4-3.5,20.7-7.5,30.8-11.7c9.7-4,19.2-8.6,28.4-13.8c3.9-2.1,7.6-4.6,11-7.3c0.9-0.7,1.6-1.5,2.3-2.3c-0.3,0.3-0.5,0.7-0.7,1.1
			c-0.1,0.3-0.2,0.6-0.3,0.9c-0.2,0.4-0.3,0.8-0.3,1.2c-0.1,0.5-0.2,1.1-0.3,1.6c0,0.2,0,0.2,0,0.2v-0.1v-0.2
			c-0.2-3.3-0.9-6.5-1.9-9.7c-1.4-4.6-3.1-9-5-13.4c-4.3-9.6-9.1-19-14.4-28.1c-5.4-9.3-11.2-18.7-17.3-27.8s-12.5-18.4-18.9-26.7
			L574.1,243.9z"/>
		<g class="st15">
			<path class="st1" d="M574.1,243.9c6.7,10.3,12.7,20,18.8,30.2c6,10.2,11.9,20.4,17.4,31c5.5,10.6,10.8,21.5,15.6,33.2
				c2.5,6.1,4.6,12.4,6.4,18.8c2.2,7.8,3.3,15.8,3.1,23.9v0.9v0.5c0,0.1,0,0.3,0,0.7c-0.1,1.3-0.3,2.5-0.6,3.8
				c-0.2,1.2-0.6,2.2-0.9,3.3c-0.3,1.1-0.7,1.9-1.1,2.9c-1.3,3-3,5.8-5.1,8.4c-2.8,3.6-6.1,6.8-9.7,9.7c-5.5,4.3-11.3,8.2-17.4,11.5
				c-10.8,5.9-21.8,11.2-33.2,15.8c-10.9,4.7-21.9,8.9-32.9,12.9c-11,4-21.8,7.9-33.3,11.7l-13.3-43.9c10.3-2.9,21.1-6.4,31.5-9.9
				c10.4-3.5,20.7-7.5,30.8-11.7c9.7-4,19.2-8.6,28.4-13.8c3.9-2.1,7.6-4.6,11-7.3c0.9-0.7,1.6-1.5,2.3-2.3
				c-0.3,0.3-0.5,0.7-0.7,1.1c-0.1,0.3-0.2,0.6-0.3,0.9c-0.2,0.4-0.3,0.8-0.3,1.2c-0.1,0.5-0.2,1.1-0.3,1.6c0,0.2,0,0.2,0,0.2v-0.1
				v-0.2c-0.2-3.3-0.9-6.5-1.9-9.7c-1.4-4.6-3.1-9-5-13.4c-4.3-9.6-9.1-19-14.4-28.1c-5.4-9.3-11.2-18.7-17.3-27.8
				s-12.5-18.4-18.9-26.7L574.1,243.9z"/>
		</g>
		<path class="st2" d="M538.8,364.7c-0.5,0-0.9-0.2-1.2-0.6c-0.4-0.6-0.2-1.5,0.4-1.9c0,0,0,0,0,0l5.4-3.4
			c10.4-6.5,15.7-18.8,13.2-30.9l-10.9-55.4c-2-10.2-11.9-16.8-22-14.8c-6.9,1.4-12.5,6.5-14.4,13.2l-15.5,54.3
			c-3.4,11.8,0.8,24.5,10.6,31.8l5.1,3.9c0.6,0.5,0.7,1.3,0.3,1.9c-0.5,0.6-1.3,0.7-1.9,0.3l-5.1-3.9c-10.7-8.1-15.3-22-11.6-34.8
			l15.5-54.3c3.3-11.4,15.2-18,26.6-14.8c7.8,2.2,13.7,8.6,15.2,16.5l10.9,55.4c2.7,13.2-3.1,26.6-14.5,33.8l-5.5,3.5
			C539.3,364.6,539.1,364.7,538.8,364.7z"/>
		<path class="st2" d="M547.2,273.6L547.2,273.6l-39.1-1.6c-0.8,0-1.4-0.6-1.4-1.4c0-0.7,0.6-1.3,1.4-1.4l39.1,1.6
			c0.8,0,1.4,0.6,1.4,1.4C548.5,272.9,547.9,273.6,547.2,273.6L547.2,273.6z"/>
		<path class="st2" d="M528.2,257.3c-0.8,0-1.4-0.6-1.4-1.4c-0.2-6.8-2.2-19-8.7-21.7c-0.7-0.3-1-1.1-0.8-1.8c0.3-0.7,1.1-1,1.8-0.8
			c9.7,4,10.4,22.2,10.4,24.2C529.6,256.7,528.9,257.3,528.2,257.3L528.2,257.3z"/>
		<path class="st2" d="M408.5,304.7c-0.1,0-0.2,0-0.3,0c-0.7-0.1-1.2-0.9-1.1-1.6c4.6-22.9,23.6-59,40.4-69.6
			c0.6-0.4,1.5-0.2,1.9,0.4c0,0,0,0,0,0c0.4,0.6,0.2,1.5-0.4,1.9c0,0,0,0,0,0c-16.2,10.2-34.6,45.5-39.1,67.8
			C409.7,304.2,409.2,304.7,408.5,304.7z"/>
		<path class="st1" d="M419.9,308.3c-2.2,5.5-6.9,8.9-10.5,7.4c-3.7-1.4-4.9-7.1-2.7-12.6s6.9-8.9,10.6-7.4
			C420.9,297.1,422.1,302.7,419.9,308.3z"/>
		<path class="st1" d="M511.9,362.2c-0.1,2.6-1.6,4.7-3.3,4.6c-1.7-0.1-3-2.2-2.9-4.8s1.6-4.7,3.3-4.6
			C510.7,357.4,512,359.6,511.9,362.2z"/>
		<path class="st1" d="M541.9,363.5c-0.1,2.6-1.6,4.7-3.3,4.6s-3-2.2-2.9-4.8c0.1-2.6,1.6-4.7,3.3-4.6
			C540.7,358.7,542,360.9,541.9,363.5z"/>
		<path class="st0" d="M1132.6,315.2l-3.5-0.2c2.4-29.5-19.6-55.4-49.2-57.7c-1.6-0.1-3.2-0.2-4.8-0.2v-3.5
			c31.5-0.3,57.3,25.1,57.6,56.6C1132.8,311.8,1132.7,313.5,1132.6,315.2L1132.6,315.2z"/>
		
			<rect x="1120.3" y="341.9" transform="matrix(6.982913e-02 -0.9976 0.9976 6.982913e-02 712.6897 1451.5806)" class="st0" width="28.9" height="3.5"/>
		<path class="st0" d="M1075.1,265.8H835c-26.7,0-50,21.8-51.8,48.5l-2.2,32.4c-2,24.7,16.4,46.4,41.2,48.4c1.4,0.1,2.8,0.2,4.1,0.1
			h240.1L1113,424l7.4-109.7c2-24.7-16.4-46.4-41.1-48.4C1077.9,265.9,1076.5,265.8,1075.1,265.8z"/>
		<rect x="840.3" y="312.2" class="st1" width="222.6" height="8.1"/>
		<rect x="895.7" y="340.8" class="st1" width="165.3" height="8.1"/>
		<path class="st1" d="M713.6,438.9h245.6c25.4-0.2,46.2,20.1,46.4,45.5c0,1.4,0,2.8-0.1,4.1l-2.2,33.1c-1.8,27.3-25.7,49.6-53,49.6
			H704.7L653,600.7l7.6-112.2C662.5,461.3,686.3,438.9,713.6,438.9z"/>
		<path class="st16" d="M713.6,438.9h245.6c25.4-0.2,46.2,20.1,46.4,45.5c0,1.4,0,2.8-0.1,4.1l-2.2,33.1
			c-1.8,27.3-25.7,49.6-53,49.6H704.7L653,600.7l7.6-112.2C662.5,461.3,686.3,438.9,713.6,438.9z"/>
		<rect x="719.1" y="486.3" class="st17" width="227.7" height="8.3"/>
		<rect x="717.1" y="515.6" class="st17" width="90" height="8.3"/>
		<rect x="829.2" y="515.6" class="st17" width="57.5" height="8.3"/>
	</g>
</g>
</svg>
